<?xml version="1.0" encoding="utf-8"?><svg viewBox="0 0 260 176" xmlns="http://www.w3.org/2000/svg" xmlns:xlink="http://www.w3.org/1999/xlink"><style>:root>svg{display:none}:root>svg:target{display:block}</style><svg viewBox="0 0 16 24" id="arrow-down" xmlns="http://www.w3.org/2000/svg"><path d="m16 16-1.41-1.41L9 20.17V0H7v20.17l-5.58-5.59L0 16l8 8 8-8z"/></svg><svg viewBox="0 0 24 16" id="arrow-read" xmlns="http://www.w3.org/2000/svg"><path d="m16 0-1.41 1.41L20.17 7H0v2h20.17l-5.59 5.58L16 16l8-8-8-8z"/></svg><svg viewBox="0 0 215 176" id="info-01" xmlns="http://www.w3.org/2000/svg"><path opacity=".1" d="M67.6 175.36c-20.96 0-37.44-7.92-49.44-23.76C6.32 135.6.4 114.4.4 88s5.92-47.52 17.76-63.36c12-16 28.48-24 49.44-24 21.12 0 37.6 8 49.44 24C128.88 40.48 134.8 61.6 134.8 88s-5.92 47.6-17.76 63.6c-11.84 15.84-28.32 23.76-49.44 23.76zm-25.44-46.32c5.76 9.28 14.24 13.92 25.44 13.92 11.2 0 19.68-4.72 25.44-14.16 5.92-9.44 8.88-23.04 8.88-40.8 0-17.92-2.96-31.6-8.88-41.04C87.28 37.52 78.8 32.8 67.6 32.8c-11.2 0-19.68 4.72-25.44 14.16C36.4 56.4 33.52 70.08 33.52 88c0 17.92 2.88 31.6 8.64 41.04zM185.284 4h28.8v168h-33.12V39.04l-31.68 8.88-8.16-28.32L185.284 4z"/></svg><svg viewBox="0 0 258 176" id="info-02" xmlns="http://www.w3.org/2000/svg"><path opacity=".1" d="M67.6 175.36c-20.96 0-37.44-7.92-49.44-23.76C6.32 135.6.4 114.4.4 88s5.92-47.52 17.76-63.36c12-16 28.48-24 49.44-24 21.12 0 37.6 8 49.44 24C128.88 40.48 134.8 61.6 134.8 88s-5.92 47.6-17.76 63.6c-11.84 15.84-28.32 23.76-49.44 23.76zm-25.44-46.32c5.76 9.28 14.24 13.92 25.44 13.92 11.2 0 19.68-4.72 25.44-14.16 5.92-9.44 8.88-23.04 8.88-40.8 0-17.92-2.96-31.6-8.88-41.04C87.28 37.52 78.8 32.8 67.6 32.8c-11.2 0-19.68 4.72-25.44 14.16C36.4 56.4 33.52 70.08 33.52 88c0 17.92 2.88 31.6 8.64 41.04zM145.433 172v-24.72l57.36-59.04c12.8-13.44 19.2-24.64 19.2-33.6 0-6.56-2.08-11.84-6.24-15.84-4-4-9.2-6-15.6-6-12.64 0-22 6.56-28.08 19.68l-27.84-16.32c5.28-11.52 12.88-20.32 22.8-26.4 9.92-6.08 20.8-9.12 32.64-9.12 15.2 0 28.24 4.8 39.12 14.4 10.88 9.44 16.32 22.24 16.32 38.4 0 17.44-9.2 35.36-27.6 53.76l-32.88 32.88h63.12V172h-112.32z"/></svg><svg viewBox="0 0 260 176" id="info-03" xmlns="http://www.w3.org/2000/svg"><path opacity=".1" d="M67.6 175.36c-20.96 0-37.44-7.92-49.44-23.76C6.32 135.6.4 114.4.4 88s5.92-47.52 17.76-63.36c12-16 28.48-24 49.44-24 21.12 0 37.6 8 49.44 24C128.88 40.48 134.8 61.6 134.8 88s-5.92 47.6-17.76 63.6c-11.84 15.84-28.32 23.76-49.44 23.76zm-25.44-46.32c5.76 9.28 14.24 13.92 25.44 13.92 11.2 0 19.68-4.72 25.44-14.16 5.92-9.44 8.88-23.04 8.88-40.8 0-17.92-2.96-31.6-8.88-41.04C87.28 37.52 78.8 32.8 67.6 32.8c-11.2 0-19.68 4.72-25.44 14.16C36.4 56.4 33.52 70.08 33.52 88c0 17.92 2.88 31.6 8.64 41.04zm178.935-56.88c11.36 3.36 20.56 9.28 27.6 17.76 7.2 8.32 10.8 18.4 10.8 30.24 0 17.28-5.84 30.8-17.52 40.56-11.52 9.76-25.68 14.64-42.48 14.64-13.12 0-24.88-2.96-35.28-8.88-10.24-6.08-17.68-14.96-22.32-26.64l28.32-16.32c4.16 12.96 13.92 19.44 29.28 19.44 8.48 0 15.04-2 19.68-6 4.8-4.16 7.2-9.76 7.2-16.8 0-6.88-2.4-12.4-7.2-16.56-4.64-4.16-11.2-6.24-19.68-6.24h-7.2l-12.72-19.2 33.12-43.2h-65.76V4h105.6v27.36l-31.44 40.8z"/></svg><svg viewBox="0 0 24 24" id="instagram-icon" xmlns="http://www.w3.org/2000/svg"><path d="M7.8 2h8.4A5.8 5.8 0 0 1 22 7.8v8.4a5.8 5.8 0 0 1-5.8 5.8H7.8A5.8 5.8 0 0 1 2 16.2V7.8A5.8 5.8 0 0 1 7.8 2zm-.2 2A3.6 3.6 0 0 0 4 7.6v8.8A3.6 3.6 0 0 0 7.6 20h8.8a3.6 3.6 0 0 0 3.6-3.6V7.6A3.6 3.6 0 0 0 16.4 4H7.6zm9.65 1.5a1.25 1.25 0 1 1 0 2.5 1.25 1.25 0 0 1 0-2.5zM12 7a5 5 0 1 1 0 10 5 5 0 0 1 0-10zm0 2a3 3 0 1 0 0 6 3 3 0 0 0 0-6z"/></svg><svg viewBox="0 0 108 24" id="logo" xmlns="http://www.w3.org/2000/svg"><g clip-path="url(#ga)"><path d="M.96 23h8.896v-.448c-3.2-.416-4.16-1.76-4.16-4.992V2.872h.192l8.32 20.16h1.152l7.456-20.16h.16v17.856c0 1.28-.8 1.728-3.072 1.824V23h11.04v-.448c-2.688-.096-3.328-.608-3.328-1.824V2.968c0-1.216.64-1.76 3.328-1.856V.696h-8.16l-6.048 16.448h-.16L9.984.696H.96v.416c2.752.064 3.936 1.536 3.936 3.456V17.56c0 3.232-.928 4.608-3.936 4.992V23Zm51.168.352h1.536V6.104c0-3.168.864-4.544 3.872-4.992V.696h-9.088v.416c3.232.384 4.416 1.824 4.416 4.992v10.624h-.032L40.512.696H32.96v.416c2.752.128 3.936 1.76 3.936 3.712V17.56c0 3.232-.928 4.608-3.936 4.992V23h9.024v-.448c-3.264-.352-4.288-1.76-4.288-4.992V4.728h.032l14.4 18.624ZM63.6 23h12.096v-.448c-2.848-.064-3.712-.608-3.712-1.824V1.272h.768c2.464 0 4.384 2.464 6.624 6.816l.48-.064-.16-7.328H59.568l-.192 7.328.48.064c2.272-4.448 4.224-6.816 6.656-6.816h.8v19.456c0 1.216-.896 1.76-3.712 1.824V23Zm38.528.352h1.536V6.104c0-3.168.864-4.544 3.872-4.992V.696h-9.088v.416c3.232.384 4.416 1.824 4.416 4.992v10.624h-.032L90.512.696H82.96v.416c2.752.128 3.936 1.76 3.936 3.712V17.56c0 3.232-.928 4.608-3.936 4.992V23h9.024v-.448c-3.264-.352-4.288-1.76-4.288-4.992V4.728h.032l14.4 18.624Z"/></g><defs><clipPath id="ga"><path fill="#fff" d="M0 0h108v24H0z"/></clipPath></defs></svg><svg viewBox="0 0 24 24" id="twitter-icon" xmlns="http://www.w3.org/2000/svg"><path d="M22.46 6.012a8.58 8.58 0 0 1-2.466.676 4.305 4.305 0 0 0 1.887-2.374 8.591 8.591 0 0 1-2.725 1.041 4.292 4.292 0 0 0-7.313 3.914 12.184 12.184 0 0 1-8.846-4.483 4.271 4.271 0 0 0-.581 2.157 4.29 4.29 0 0 0 1.91 3.572 4.276 4.276 0 0 1-1.945-.537v.054c0 2.08 1.48 3.814 3.443 4.209a4.296 4.296 0 0 1-1.939.073 4.296 4.296 0 0 0 4.01 2.98 8.61 8.61 0 0 1-5.33 1.838c-.347 0-.688-.02-1.024-.06A12.147 12.147 0 0 0 8.12 21c7.893 0 12.21-6.54 12.21-12.21 0-.187-.004-.372-.012-.556a8.719 8.719 0 0 0 2.141-2.222z"/></svg><svg viewBox="0 0 24 24" id="user-top" xmlns="http://www.w3.org/2000/svg"><path fill-rule="evenodd" clip-rule="evenodd" d="M12 2C6.48 2 2 6.48 2 12s4.48 10 10 10 10-4.48 10-10S17.52 2 12 2zM7.07 18.28c.43-.9 3.05-1.78 4.93-1.78s4.51.88 4.93 1.78A7.893 7.893 0 0 1 12 20c-1.86 0-3.57-.64-4.93-1.72zm11.29-1.45c-1.43-1.74-4.9-2.33-6.36-2.33s-4.93.59-6.36 2.33A7.95 7.95 0 0 1 4 12c0-4.41 3.59-8 8-8s8 3.59 8 8c0 1.82-.62 3.49-1.64 4.83zM12 6c-1.94 0-3.5 1.56-3.5 3.5S10.06 13 12 13s3.5-1.56 3.5-3.5S13.94 6 12 6zm0 5c-.83 0-1.5-.67-1.5-1.5S11.17 8 12 8s1.5.67 1.5 1.5S12.83 11 12 11z"/></svg></svg>